<svg
   width="96"
   height="96"
   viewBox="0 0 32 32"
   fill="none"
   version="1.1"
   xmlns="http://www.w3.org/2000/svg"
   xmlns:svg="http://www.w3.org/2000/svg">
  <path
     d="M27.3138 4.68622C28.8759 6.24832 28.8759 8.78098 27.3138 10.3431L12.5409 25.116C11.9001 25.7568 11.0972 26.2114 10.218 26.4312L5.63602 27.5767C4.90364 27.7598 4.24025 27.0964 4.42335 26.364L5.56885 21.782C5.78864 20.9028 6.24323 20.0999 6.88402 19.4591L21.6569 4.68622C23.219 3.12412 25.7517 3.12412 27.3138 4.68622ZM20.2426 8.92865L8.29824 20.8734C7.91376 21.2578 7.641 21.7396 7.50913 22.2671L6.76786 25.2322L9.73295 24.4909C10.2604 24.359 10.7422 24.0863 11.1267 23.7018L23.0706 11.7566L20.2426 8.92865ZM23.0712 6.10043L21.6566 7.51465L24.4846 10.3426L25.8996 8.92886C26.6806 8.14781 26.6806 6.88148 25.8996 6.10043C25.1185 5.31939 23.8522 5.31939 23.0712 6.10043Z"
     fill="#212121" />
  <path
     d="m 4.6851341,3.8419199 c 0.39052,-0.39053 1.02369,-0.39053 1.41421,0 22.0431099,22.0431801 0,0 22.0431099,22.0431801 0.3906,0.3905 0.3906,1.0237 0,1.4142 -0.3905,0.3905 -1.0236,0.3905 -1.4142,0 C 4.6851341,5.2561299 26.581382,27.152484 4.6851341,5.2561299 c -0.39053,-0.39052 -0.39053,-1.02369 0,-1.41421 z"
     fill="#212121" />
</svg>
