<svg width="96" height="96" version="1.1" viewBox="0 0 24 24" xmlns="http://www.w3.org/2000/svg">
 <path d="M7 18h13a.75.75 0 0 1 .102 1.493L20 19.5H7a.75.75 0 0 1-.102-1.493L7 18Zm10-3a.75.75 0 0 1 .102 1.493L17 16.5H4a.75.75 0 0 1-.102-1.493L4 15h13Zm3-3a.75.75 0 0 1 .102 1.493L20 13.5H7a.75.75 0 0 1-.102-1.493L7 12h13ZM6 5a2.75 2.75 0 0 1 2.55 1.717.75.75 0 0 1-1.346.655l-.045-.091A1.25 1.25 0 1 0 6 9h11.5a.75.75 0 0 1 .102 1.493l-.102.007H6A2.75 2.75 0 0 1 6 5Zm14 1a.75.75 0 0 1 .102 1.493L20 7.5h-9a.75.75 0 0 1-.102-1.493L11 6h9Z" fill="#212121"/>
 <path d="m3.2035 3.2035c0.29289-0.2929 0.76777-0.2929 1.0607 0 16.532 16.532 0 0 16.532 16.532 0.29295 0.29288 0.29295 0.76778 0 1.0606-0.29288 0.29288-0.7677 0.29288-1.0606 0-16.532-16.532-0.11015-0.11011-16.532-16.532-0.2929-0.29289-0.2929-0.76777 1e-7 -1.0607z" fill="#212121" stroke-width=".75"/>
</svg>
