<svg width="512" height="512" fill="none" viewBox="0 0 24 24" xmlns="http://www.w3.org/2000/svg"><path d="M17.75 3A3.25 3.25 0 0 1 21 6.25v11.5A3.25 3.25 0 0 1 17.75 21H6.25A3.25 3.25 0 0 1 3 17.75V6.25A3.25 3.25 0 0 1 6.25 3h11.5Zm.58 16.401-5.805-5.686a.75.75 0 0 0-.966-.071l-.084.07-5.807 5.687c.182.064.378.099.582.099h11.5c.203 0 .399-.035.58-.099l-5.805-5.686L18.33 19.4ZM17.75 4.5H6.25A1.75 1.75 0 0 0 4.5 6.25v11.5c0 .208.036.408.103.594l5.823-5.701a2.25 2.25 0 0 1 3.02-.116l.128.116 5.822 5.702c.067-.186.104-.386.104-.595V6.25a1.75 1.75 0 0 0-1.75-1.75Zm-2.498 2a2.252 2.252 0 1 1 0 4.504 2.252 2.252 0 0 1 0-4.504Zm0 1.5a.752.752 0 1 0 0 1.504.752.752 0 0 0 0-1.504Z" fill="#212121"/></svg>
