<svg width="32" height="32" version="1.1" viewBox="0 0 8.4667 8.4667" xmlns="http://www.w3.org/2000/svg">
 <g transform="rotate(17.066 .26297 6.1037)" stroke="#000" stroke-linejoin="round">
  <path d="m1.0583 0.26458c-0.79375 0-0.79375 0.79375-0.79375 0.79375l0.79375 6.35 0.79375-6.35s-9e-7 -0.79375-0.79375-0.79375zm0 0.26458a0.52917 0.52917 0 0 1 0.52917 0.52917 0.52917 0.52917 0 0 1-0.52917 0.52917 0.52917 0.52917 0 0 1-0.52917-0.52917 0.52917 0.52917 0 0 1 0.52917-0.52917z" fill-rule="evenodd" stroke-width=".026458"/>
  <path d="m1.0583 1.0583s4.4594-1.5552 5.2917 0c0.60018 1.1215-2.242 1.9092-2.1167 3.175 0.049161 0.49648 1.0583 0.55943 1.0583 1.0583s-1.0583 1.0583-1.0583 1.0583" fill="none" stroke-linecap="round" stroke-width=".52917"/>
 </g>
</svg>
