<svg width="24" height="24" fill="none" viewBox="0 0 24 24" xmlns="http://www.w3.org/2000/svg"><path d="M17.5 12a5.5 5.5 0 1 1 0 11 5.5 5.5 0 0 1 0-11Zm0 2-.09.007a.5.5 0 0 0-.402.402L17 14.5V17L14.498 17l-.09.008a.5.5 0 0 0-.402.402l-.008.09.008.09a.5.5 0 0 0 .402.402l.09.008H17v2.503l.008.09a.5.5 0 0 0 .402.402l.09.008.09-.008a.5.5 0 0 0 .402-.402l.008-.09V18l2.504.001.09-.008a.5.5 0 0 0 .402-.402l.008-.09-.008-.09a.5.5 0 0 0-.403-.402l-.09-.008H18v-2.5l-.008-.09a.5.5 0 0 0-.402-.403L17.5 14Zm-6.481 4c.04.519.14 1.021.294 1.5H7a.75.75 0 0 1-.102-1.493L7 18h4.019Zm.479-3c-.198.475-.34.977-.422 1.5H4a.75.75 0 0 1-.102-1.493L4 15h7.498Zm2.537-3a6.534 6.534 0 0 0-1.659 1.5H7a.75.75 0 0 1-.102-1.493L7 12h7.035ZM6 5a2.75 2.75 0 0 1 2.55 1.717.75.75 0 0 1-1.346.655l-.045-.091A1.25 1.25 0 1 0 6 9h11.5a.75.75 0 0 1 .102 1.493l-.102.007H6A2.75 2.75 0 0 1 6 5Zm14 1a.75.75 0 0 1 .102 1.493L20 7.5h-9a.75.75 0 0 1-.102-1.493L11 6h9Z" fill="#212121"/></svg>