<svg width="32" height="32" fill="none" viewBox="0 0 24 24" xmlns="http://www.w3.org/2000/svg"><path d="M12.45 2.15C14.992 4.057 17.587 5 20.25 5a.75.75 0 0 1 .75.75V11c0 5.001-2.958 8.676-8.725 10.948a.75.75 0 0 1-.55 0C5.958 19.676 3 16 3 11V5.75A.75.75 0 0 1 3.75 5c2.663 0 5.258-.943 7.8-2.85a.75.75 0 0 1 .9 0ZM9.28 8.222a.75.75 0 0 0-1.13.975l.072.084 2.723 2.723-2.723 2.725a.749.749 0 1 0 1.059 1.059l2.723-2.724 2.725 2.724a.75.75 0 0 0 .975.073l.084-.073a.75.75 0 0 0 .073-.975l-.073-.084-2.724-2.725 2.724-2.723a.749.749 0 1 0-1.06-1.06l-2.724 2.724-2.723-2.723Z" fill="#212121"/></svg>
