<svg width="32" height="32" fill="none" viewBox="0 0 24 24" xmlns="http://www.w3.org/2000/svg"><path d="M12.45 2.15C14.992 4.057 17.587 5 20.25 5a.75.75 0 0 1 .75.75V11c0 5.001-2.958 8.676-8.725 10.948a.75.75 0 0 1-.55 0C5.958 19.676 3 16 3 11V5.75A.75.75 0 0 1 3.75 5c2.663 0 5.258-.943 7.8-2.85a.75.75 0 0 1 .9 0ZM12 16a.75.75 0 1 0 0 1.5.75.75 0 0 0 0-1.5Zm0-9.018a.75.75 0 0 0-.743.648l-.007.102v6.5l.007.102a.75.75 0 0 0 1.486 0l.007-.102v-6.5l-.007-.102A.75.75 0 0 0 12 6.982Z" fill="#212121"/></svg>
