<svg width="512" height="512" fill="none" viewBox="0 0 24 24" xmlns="http://www.w3.org/2000/svg"><path d="M9.49 4.402A2.25 2.25 0 0 0 8.208 4H4.25l-.154.005A2.25 2.25 0 0 0 2 6.25v11.5l.005.154A2.25 2.25 0 0 0 4.25 20h15.5l.154-.005A2.25 2.25 0 0 0 22 17.75v-9l-.005-.154-.017-.158A2.25 2.25 0 0 0 19.75 6.5h-7.728L9.647 4.521l-.156-.119ZM13.498 8v2.245c0 .414.335.75.75.75h.75v1.003h-.25a.75.75 0 0 0 0 1.5h.25v1.5h-.25a.75.75 0 0 0 0 1.5h.25V18.5H4.25l-.102-.007a.75.75 0 0 1-.648-.743v-7.251l4.707.001.196-.009a2.25 2.25 0 0 0 1.244-.512L12.021 8h1.476Zm3 10h.25a.75.75 0 0 0 0-1.5h-.25V15h.25a.75.75 0 0 0 0-1.5h-.25v-2.505h.75a.75.75 0 0 0 .75-.75V8h1.753l.102.007a.75.75 0 0 1 .648.743v9l-.007.102a.75.75 0 0 1-.743.648h-3.253V18Zm0-10v1.495h-1.5V8h1.5ZM4.25 5.5h3.957l.104.007a.75.75 0 0 1 .376.167l1.891 1.575-1.89 1.577-.086.061A.75.75 0 0 1 8.207 9L3.5 8.999V6.25l.007-.102A.75.75 0 0 1 4.25 5.5Z" fill="#212121"/></svg>
